<svg width="163" height="28" viewBox="0 0 163 28" fill="none" xmlns="http://www.w3.org/2000/svg">
<path d="M151.082 0.169813H153.254L156.576 5.92649H156.712L160.017 0.169813H162.206L157.598 7.85387V12.8209H155.681V7.85387L151.082 0.169813Z" fill="black"/>
<path d="M142.342 12.8209V0.169813H146.874C147.856 0.169813 148.671 0.339627 149.318 0.679253C149.966 1.01322 150.451 1.48021 150.775 2.08021C151.099 2.67456 151.26 3.3623 151.26 4.14345C151.26 4.91327 151.099 5.59252 150.775 6.18121C150.451 6.76989 149.963 7.22556 149.31 7.5482C148.663 7.87085 147.845 8.03217 146.857 8.03217H143.441V6.40196H146.678C147.308 6.40196 147.816 6.3114 148.203 6.13026C148.594 5.94913 148.878 5.69158 149.054 5.35761C149.236 5.02365 149.327 4.61892 149.327 4.14345C149.327 3.66231 149.236 3.2491 149.054 2.90381C148.873 2.55286 148.586 2.28399 148.194 2.0972C147.808 1.90474 147.3 1.80851 146.669 1.80851H144.259V12.8209H142.342ZM149.565 12.8209L146.491 7.10669H148.611L151.746 12.8209H149.565Z" fill="black"/>
<path d="M132.913 12.8209V0.169813H140.877V1.80851H134.83V5.62082H140.451V7.25103H134.83V11.1822H140.937V12.8209H132.913Z" fill="black"/>
<path d="M122.913 0.169813L126.448 10.469H126.584L130.119 0.169813H132.18L127.623 12.8209H125.409L120.843 0.169813H122.913Z" fill="black"/>
<path d="M115.417 12.9907C114.327 12.9907 113.35 12.7303 112.487 12.2096C111.624 11.6888 110.943 10.9445 110.443 9.97653C109.943 9.00294 109.693 7.84538 109.693 6.50385C109.693 5.151 109.943 3.99061 110.443 3.02268C110.943 2.04908 111.624 1.3019 112.487 0.781141C113.35 0.26038 114.327 0 115.417 0C116.519 0 117.498 0.26038 118.356 0.781141C119.213 1.3019 119.889 2.04908 120.383 3.02268C120.883 3.99061 121.132 5.151 121.132 6.50385C121.132 7.85104 120.883 9.0086 120.383 9.97653C119.889 10.9445 119.213 11.6888 118.356 12.2096C117.498 12.7303 116.519 12.9907 115.417 12.9907ZM115.417 11.2501C116.15 11.2501 116.803 11.069 117.376 10.7067C117.95 10.3445 118.401 9.80955 118.73 9.102C119.066 8.39444 119.233 7.52839 119.233 6.50385C119.233 5.47365 119.066 4.60477 118.73 3.89722C118.401 3.184 117.95 2.64626 117.376 2.28399C116.803 1.92172 116.15 1.74059 115.417 1.74059C114.69 1.74059 114.037 1.92172 113.458 2.28399C112.885 2.64626 112.43 3.184 112.095 3.89722C111.76 4.60477 111.593 5.47365 111.593 6.50385C111.593 7.52839 111.76 8.39444 112.095 9.102C112.43 9.80955 112.885 10.3445 113.458 10.7067C114.037 11.069 114.69 11.2501 115.417 11.2501Z" fill="black"/>
<path d="M103.654 12.9907C102.564 12.9907 101.587 12.7303 100.724 12.2096C99.8607 11.6888 99.1821 10.9445 98.6881 9.97653C98.1941 9.00294 97.9471 7.84538 97.9471 6.50385C97.9471 5.151 98.1941 3.99061 98.6881 3.02268C99.1878 2.04908 99.8664 1.3019 100.724 0.781141C101.587 0.26038 102.564 0 103.654 0C104.324 0 104.951 0.0962276 105.536 0.288683C106.127 0.481138 106.655 0.76133 107.121 1.12926C107.586 1.49719 107.97 1.94719 108.27 2.47928C108.577 3.01136 108.782 3.61419 108.884 4.28779H106.959C106.885 3.87457 106.746 3.51231 106.541 3.20098C106.343 2.884 106.096 2.61796 105.8 2.40286C105.511 2.1821 105.184 2.01795 104.821 1.9104C104.463 1.79719 104.083 1.74059 103.679 1.74059C102.953 1.74059 102.297 1.92455 101.712 2.29248C101.133 2.65475 100.676 3.19249 100.341 3.90571C100.011 4.61326 99.8465 5.47931 99.8465 6.50385C99.8465 7.53405 100.014 8.40293 100.349 9.11049C100.684 9.81238 101.141 10.3445 101.72 10.7067C102.3 11.069 102.95 11.2501 103.671 11.2501C104.074 11.2501 104.455 11.1964 104.812 11.0888C105.17 10.9813 105.497 10.8199 105.792 10.6048C106.087 10.3897 106.334 10.1294 106.533 9.8237C106.737 9.51238 106.879 9.15294 106.959 8.74539H108.884C108.787 9.3737 108.591 9.94823 108.296 10.469C108.001 10.9841 107.623 11.4313 107.163 11.8105C106.703 12.1841 106.178 12.4756 105.587 12.6851C104.997 12.8888 104.352 12.9907 103.654 12.9907Z" fill="black"/>
<path d="M92.4614 13.0247C91.5131 13.0247 90.6897 12.8775 89.9913 12.5832C89.2985 12.2832 88.7562 11.8558 88.3644 11.3011C87.9726 10.7464 87.754 10.0869 87.7085 9.32275H89.6335C89.6733 9.78125 89.8209 10.1633 90.0764 10.469C90.3376 10.769 90.6755 10.9926 91.09 11.1398C91.5046 11.2869 91.9588 11.3605 92.4529 11.3605C92.9923 11.3605 93.475 11.2756 93.9009 11.1058C94.3267 10.936 94.6589 10.6982 94.8974 10.3926C95.1416 10.0813 95.2637 9.71898 95.2637 9.30577C95.2637 8.93218 95.1558 8.62652 94.94 8.38878C94.7299 8.15104 94.4432 7.95576 94.0797 7.80292C93.7163 7.64443 93.3075 7.50575 92.8532 7.38688L91.3626 6.97933C90.3405 6.70763 89.5342 6.30291 88.9436 5.76516C88.353 5.22176 88.0578 4.51137 88.0578 3.63401C88.0578 2.90381 88.2537 2.26701 88.6455 1.72361C89.043 1.1802 89.5796 0.7585 90.2553 0.458496C90.9367 0.152832 91.7005 0 92.5466 0C93.4097 0 94.1677 0.152832 94.8208 0.458496C95.4795 0.7585 95.999 1.17171 96.3795 1.69813C96.7656 2.21889 96.9672 2.81607 96.9842 3.48966H95.1274C95.0593 2.90664 94.7867 2.4538 94.3097 2.13116C93.8384 1.80851 93.2365 1.64719 92.504 1.64719C91.9929 1.64719 91.5443 1.72927 91.1582 1.89342C90.7777 2.05191 90.4825 2.27267 90.2723 2.55569C90.0679 2.83871 89.9657 3.16419 89.9657 3.53212C89.9657 3.92835 90.0878 4.25099 90.332 4.50005C90.5818 4.74911 90.8828 4.94723 91.2348 5.0944C91.5926 5.23591 91.9361 5.35195 92.2655 5.44252L93.5005 5.77365C93.9037 5.87554 94.3182 6.01139 94.7441 6.18121C95.17 6.35102 95.5646 6.57461 95.9281 6.85197C96.2972 7.12367 96.5924 7.4633 96.8139 7.87085C97.041 8.27274 97.1546 8.75954 97.1546 9.33124C97.1546 10.0388 96.9701 10.6728 96.601 11.2332C96.2319 11.7879 95.6981 12.2266 94.9996 12.5492C94.3012 12.8662 93.4551 13.0247 92.4614 13.0247Z" fill="black"/>
<path d="M86.5072 0.169813V12.8209H84.5907V0.169813H86.5072Z" fill="black"/>
<path d="M77.1971 12.8209H74.0626V11.1482H77.0863C78.0517 11.1482 78.8552 10.9699 79.4968 10.6133C80.1385 10.2511 80.6183 9.72182 80.9363 9.02558C81.2543 8.32369 81.4133 7.47462 81.4133 6.47838C81.4133 5.4878 81.2543 4.64723 80.9363 3.95665C80.624 3.26608 80.1555 2.74249 79.5309 2.38588C78.9063 2.02361 78.1312 1.84247 77.2056 1.84247H73.9944V0.169813H77.3248C78.5684 0.169813 79.636 0.421703 80.5275 0.925483C81.419 1.42926 82.1032 2.1538 82.5802 3.09909C83.0572 4.03873 83.2957 5.16516 83.2957 6.47838C83.2957 7.79726 83.0544 8.92935 82.5717 9.87465C82.0947 10.8199 81.402 11.5473 80.4934 12.0567C79.5849 12.5662 78.4861 12.8209 77.1971 12.8209ZM74.9995 0.169813V12.8209H73.0831V0.169813H74.9995Z" fill="black"/>
<path d="M67.844 0.169813V12.8209H66.0553L59.6245 3.5491H59.4967V12.8209H57.5803V0.169813H59.3519L65.8083 9.4586H65.9276V0.169813H67.844Z" fill="black"/>
<path d="M50.5699 12.9907C49.4796 12.9907 48.5029 12.7303 47.6398 12.2096C46.7767 11.6888 46.0953 10.9445 45.5956 9.97653C45.0959 9.00294 44.846 7.84538 44.846 6.50385C44.846 5.151 45.0959 3.99061 45.5956 3.02268C46.0953 2.04908 46.7767 1.3019 47.6398 0.781141C48.5029 0.26038 49.4796 0 50.5699 0C51.6715 0 52.651 0.26038 53.5085 0.781141C54.3659 1.3019 55.0417 2.04908 55.5357 3.02268C56.0354 3.99061 56.2852 5.151 56.2852 6.50385C56.2852 7.85104 56.0354 9.0086 55.5357 9.97653C55.0417 10.9445 54.3659 11.6888 53.5085 12.2096C52.651 12.7303 51.6715 12.9907 50.5699 12.9907ZM50.5699 11.2501C51.3024 11.2501 51.9554 11.069 52.529 10.7067C53.1025 10.3445 53.5539 9.80955 53.8833 9.102C54.2183 8.39444 54.3858 7.52839 54.3858 6.50385C54.3858 5.47365 54.2183 4.60477 53.8833 3.89722C53.5539 3.184 53.1025 2.64626 52.529 2.28399C51.9554 1.92172 51.3024 1.74059 50.5699 1.74059C49.8431 1.74059 49.19 1.92172 48.6108 2.28399C48.0373 2.64626 47.583 3.184 47.248 3.89722C46.913 4.60477 46.7455 5.47365 46.7455 6.50385C46.7455 7.52839 46.913 8.39444 47.248 9.102C47.583 9.80955 48.0373 10.3445 48.6108 10.7067C49.19 11.069 49.8431 11.2501 50.5699 11.2501Z" fill="black"/>
<path d="M43.551 0.169813V12.8209H41.6345V0.169813H43.551Z" fill="black"/>
<path d="M29.7862 12.8209V0.169813H31.7026V5.67177H38.0227V0.169813H39.9392V12.8209H38.0227V7.31046H31.7026V12.8209H29.7862Z" fill="black"/>
<path d="M23.8916 13.0247C22.9433 13.0247 22.1199 12.8775 21.4215 12.5832C20.7287 12.2832 20.1864 11.8558 19.7946 11.3011C19.4028 10.7464 19.1842 10.0869 19.1388 9.32275H21.0638C21.1035 9.78125 21.2511 10.1633 21.5067 10.469C21.7679 10.769 22.1057 10.9926 22.5203 11.1398C22.9348 11.2869 23.3891 11.3605 23.8831 11.3605C24.4225 11.3605 24.9052 11.2756 25.3311 11.1058C25.757 10.936 26.0892 10.6982 26.3277 10.3926C26.5718 10.0813 26.6939 9.71898 26.6939 9.30577C26.6939 8.93218 26.586 8.62652 26.3702 8.38878C26.1601 8.15104 25.8734 7.95576 25.51 7.80292C25.1465 7.64443 24.7377 7.50575 24.2834 7.38688L22.7928 6.97933C21.7707 6.70763 20.9644 6.30291 20.3738 5.76516C19.7833 5.22176 19.488 4.51137 19.488 3.63401C19.488 2.90381 19.6839 2.26701 20.0757 1.72361C20.4732 1.1802 21.0098 0.7585 21.6855 0.458496C22.367 0.152832 23.1307 0 23.9768 0C24.8399 0 25.598 0.152832 26.251 0.458496C26.9097 0.7585 27.4293 1.17171 27.8097 1.69813C28.1959 2.21889 28.3974 2.81607 28.4145 3.48966H26.5576C26.4895 2.90664 26.2169 2.4538 25.7399 2.13116C25.2686 1.80851 24.6667 1.64719 23.9342 1.64719C23.4231 1.64719 22.9745 1.72927 22.5884 1.89342C22.208 2.05191 21.9127 2.27267 21.7026 2.55569C21.4982 2.83871 21.3959 3.16419 21.3959 3.53212C21.3959 3.92835 21.518 4.25099 21.7622 4.50005C22.0121 4.74911 22.313 4.94723 22.6651 5.0944C23.0228 5.23591 23.3664 5.35195 23.6957 5.44252L24.9308 5.77365C25.3339 5.87554 25.7485 6.01139 26.1743 6.18121C26.6002 6.35102 26.9949 6.57461 27.3583 6.85197C27.7274 7.12367 28.0227 7.4633 28.2441 7.87085C28.4713 8.27274 28.5848 8.75954 28.5848 9.33124C28.5848 10.0388 28.4003 10.6728 28.0312 11.2332C27.6621 11.7879 27.1283 12.2266 26.4299 12.5492C25.7314 12.8662 24.8853 13.0247 23.8916 13.0247Z" fill="black"/>
<path d="M9.70939 12.8209H7.67367L12.2391 0.169813H14.4537L19.0107 12.8209H16.9835L13.389 2.47078H13.2868L9.70939 12.8209ZM10.0501 7.87085H16.6342V9.46709H10.0501V7.87085Z" fill="black"/>
<path d="M1.07216 12.8209V0.169813H8.95098V1.80851H2.98863V5.9095H8.3803V7.53971H2.98863V12.8209H1.07216Z" fill="black"/>
<path d="M105.002 22.3506C105.002 22.2604 104.965 22.1948 104.891 22.1539C104.825 22.1047 104.706 22.0801 104.533 22.0801H100.536V23.6048H102.954C103.118 23.6048 103.246 23.5843 103.336 23.5433C103.427 23.4941 103.472 23.3753 103.472 23.1867H103.694V25.1049H103.472C103.472 24.9164 103.427 24.7975 103.336 24.7483C103.246 24.691 103.118 24.6623 102.954 24.6623H100.536V26.3591H104.656C104.78 26.3591 104.878 26.3305 104.952 26.2731C105.034 26.2157 105.076 26.1378 105.076 26.0394H105.298V27.724H105.076C105.076 27.6011 105.034 27.5314 104.952 27.515C104.878 27.4986 104.78 27.4904 104.656 27.4904H98.9079V27.2691C98.9655 27.2691 99.0149 27.2527 99.056 27.2199C99.1053 27.1789 99.13 27.1215 99.13 27.0477V21.4653C99.13 21.3915 99.1053 21.3382 99.056 21.3054C99.0149 21.2644 98.9655 21.2439 98.9079 21.2439V21.0226H104.533C104.706 21.0226 104.825 20.998 104.891 20.9488C104.965 20.8915 105.002 20.8177 105.002 20.7275H105.224V22.3506H105.002Z" fill="black"/>
<path d="M93.9408 23.0146L93.6941 22.9408C93.7106 22.8916 93.7188 22.8424 93.7188 22.7933C93.7188 22.6703 93.6407 22.5596 93.4844 22.4613C93.3364 22.3629 93.1431 22.2809 92.9047 22.2153C92.6744 22.1416 92.4195 22.0883 92.1399 22.0555C91.8685 22.0227 91.6095 22.0063 91.3627 22.0063C91.0585 22.0063 90.7542 22.0514 90.4499 22.1416C90.1539 22.2235 89.8866 22.3547 89.6481 22.535C89.4179 22.7154 89.2288 22.949 89.0807 23.2359C88.9409 23.5228 88.871 23.8712 88.871 24.2811C88.871 24.6828 88.9409 25.0312 89.0807 25.3263C89.2288 25.6132 89.4179 25.8468 89.6481 26.0271C89.8866 26.2075 90.1539 26.3427 90.4499 26.4329C90.7542 26.5149 91.0585 26.5559 91.3627 26.5559C91.8315 26.5559 92.2509 26.519 92.6209 26.4452C92.9992 26.3632 93.3199 26.2772 93.5831 26.187V25.1295H92.0042C91.889 25.1295 91.8027 25.1541 91.7451 25.2033C91.6876 25.2525 91.6506 25.3591 91.6341 25.523H91.4121V23.9491H91.6341C91.6506 24.0885 91.6876 24.1786 91.7451 24.2196C91.8027 24.2524 91.889 24.2688 92.0042 24.2688H95.088V24.4901C94.9235 24.5147 94.8207 24.5434 94.7796 24.5762C94.7385 24.609 94.7179 24.6787 94.7179 24.7852V26.1747C94.7179 26.2567 94.7426 26.31 94.7919 26.3346C94.8413 26.3591 94.8988 26.3878 94.9646 26.4206V26.6174C94.6933 26.8059 94.4054 26.9617 94.1012 27.0846C93.8051 27.2076 93.5009 27.3059 93.1884 27.3797C92.8841 27.4453 92.5757 27.4863 92.2632 27.5027C91.959 27.5191 91.6588 27.5273 91.3627 27.5273C90.7871 27.5273 90.2608 27.4576 89.7838 27.3182C89.3151 27.1707 88.9122 26.9576 88.575 26.6788C88.2378 26.3919 87.9747 26.0476 87.7855 25.646C87.6046 25.2361 87.5142 24.7729 87.5142 24.2565C87.5142 23.7401 87.6046 23.281 87.7855 22.8793C87.9747 22.4695 88.2378 22.1211 88.575 21.8342C88.9122 21.5472 89.3151 21.33 89.7838 21.1825C90.2608 21.0267 90.7871 20.9488 91.3627 20.9488C91.7246 20.9488 92.07 20.9734 92.3989 21.0226C92.7278 21.0718 93.0198 21.1292 93.2747 21.1948C93.5296 21.2521 93.7393 21.3095 93.9038 21.3669C94.0765 21.4161 94.1834 21.4407 94.2245 21.4407C94.2985 21.4407 94.3561 21.4243 94.3972 21.3915C94.4383 21.3587 94.4794 21.33 94.5206 21.3054L94.6686 21.3915L93.9408 23.0146Z" fill="black"/>
<path d="M81.6797 24.982L80.6435 22.6949L79.484 24.982H81.6797ZM77.0293 27.2691C77.1362 27.2527 77.2185 27.1994 77.276 27.1092C77.3418 27.019 77.4035 26.9166 77.461 26.8018L79.7431 22.0186C79.8006 21.912 79.85 21.8137 79.8911 21.7235C79.9404 21.6333 79.9651 21.5554 79.9651 21.4899C79.9651 21.4079 79.9363 21.3505 79.8787 21.3177C79.8212 21.2849 79.7595 21.2603 79.6937 21.2439V21.0226H81.7784V21.2439C81.7208 21.2603 81.6632 21.2849 81.6057 21.3177C81.5481 21.3423 81.5193 21.3997 81.5193 21.4899C81.5193 21.5554 81.5317 21.621 81.5563 21.6866C81.5892 21.7522 81.6345 21.8383 81.692 21.9448L84.2578 26.9494C84.2989 27.0395 84.3523 27.1051 84.4181 27.1461C84.4921 27.1871 84.5744 27.2281 84.6648 27.2691V27.4904H82.4938V27.2691C82.5267 27.2691 82.5678 27.2568 82.6172 27.2322C82.6665 27.2076 82.6912 27.1707 82.6912 27.1215C82.6912 27.0395 82.6583 26.933 82.5925 26.8018L82.1238 25.8919H79.114L78.6699 26.7649C78.5877 26.9371 78.5465 27.06 78.5465 27.1338C78.5465 27.224 78.6247 27.2691 78.7809 27.2691V27.4904H77.0293V27.2691Z" fill="black"/>
<path d="M71.7211 27.0477C71.7211 27.1953 71.8116 27.2691 71.9925 27.2691V27.4904H70.0929V27.2691C70.1504 27.2691 70.1998 27.2527 70.2409 27.2199C70.2902 27.1789 70.3149 27.1215 70.3149 27.0477V22.1539H68.2796C68.2056 22.1539 68.1316 22.1743 68.0576 22.2153C67.9918 22.2563 67.9589 22.3342 67.9589 22.449H67.7368V20.7275H67.9589C67.9589 20.8423 67.9918 20.9201 68.0576 20.9611C68.1316 21.0021 68.2056 21.0226 68.2796 21.0226H73.7564C73.8304 21.0226 73.9003 21.0021 73.9661 20.9611C74.0401 20.9201 74.0771 20.8423 74.0771 20.7275H74.2992V22.449H74.0771C74.0771 22.3342 74.0401 22.2563 73.9661 22.2153C73.9003 22.1743 73.8304 22.1539 73.7564 22.1539H71.7211V27.0477Z" fill="black"/>
<path d="M58.5965 25.4615L58.7199 25.523C58.7199 25.5968 58.7363 25.6624 58.7692 25.7197C58.8268 25.8181 58.9378 25.9165 59.1023 26.0148C59.275 26.105 59.4682 26.187 59.682 26.2608C59.9041 26.3346 60.1343 26.396 60.3728 26.4452C60.6113 26.4862 60.8251 26.5067 61.0142 26.5067C61.154 26.5067 61.335 26.4985 61.557 26.4821C61.779 26.4575 61.9969 26.4124 62.2108 26.3468C62.4246 26.2813 62.6096 26.1911 62.7658 26.0763C62.9221 25.9616 63.0002 25.8099 63.0002 25.6214C63.0002 25.4328 62.9262 25.2935 62.7782 25.2033C62.6384 25.1131 62.4492 25.0476 62.2108 25.0066C61.9805 24.9656 61.7132 24.941 61.409 24.9328C61.1129 24.9164 60.8086 24.8959 60.4962 24.8713C60.1837 24.8467 59.8753 24.8057 59.571 24.7483C59.275 24.691 59.0077 24.5967 58.7692 24.4655C58.539 24.3262 58.3498 24.1417 58.2018 23.9122C58.062 23.6745 57.9921 23.3671 57.9921 22.99C57.9921 22.7359 58.0497 22.4859 58.1648 22.2399C58.2882 21.994 58.4732 21.7768 58.7199 21.5882C58.9666 21.3997 59.2791 21.248 59.6574 21.1333C60.0356 21.0103 60.4797 20.9488 60.9896 20.9488C61.4254 20.9488 61.8037 20.9816 62.1244 21.0472C62.4451 21.1128 62.7206 21.1825 62.9509 21.2562C63.1894 21.33 63.3867 21.3997 63.543 21.4653C63.7074 21.5309 63.8431 21.5636 63.95 21.5636C64.0652 21.5636 64.1474 21.539 64.1967 21.4899L64.3447 21.5882L63.4936 23.1253L63.3703 23.0761C63.3538 22.9613 63.3209 22.867 63.2716 22.7933C63.2058 22.6949 63.0948 22.6006 62.9385 22.5104C62.7905 22.4121 62.6137 22.326 62.4081 22.2522C62.2025 22.1784 61.9805 22.1211 61.742 22.0801C61.5035 22.0309 61.2651 22.0063 61.0266 22.0063C60.8457 22.0063 60.6565 22.0227 60.4591 22.0555C60.27 22.0801 60.0973 22.1211 59.9411 22.1784C59.7848 22.2358 59.6532 22.3137 59.5463 22.4121C59.4477 22.5022 59.3983 22.617 59.3983 22.7564C59.3983 22.9531 59.4682 23.1007 59.608 23.199C59.756 23.2974 59.9452 23.3712 60.1754 23.4204C60.4139 23.4695 60.6812 23.5023 60.9772 23.5187C61.2815 23.5351 61.5899 23.5556 61.9024 23.5802C62.2149 23.6048 62.5191 23.6499 62.8152 23.7155C63.1194 23.7729 63.3867 23.8712 63.617 24.0106C63.8555 24.1417 64.0446 24.3221 64.1844 24.5516C64.3324 24.7811 64.4064 25.0803 64.4064 25.4492C64.4064 25.8755 64.2913 26.2239 64.061 26.4944C63.839 26.7649 63.5594 26.978 63.2222 27.1338C62.8851 27.2896 62.5191 27.3961 62.1244 27.4535C61.7379 27.5027 61.3761 27.5273 61.0389 27.5273C60.5702 27.5273 60.1754 27.5027 59.8547 27.4535C59.5422 27.3961 59.2791 27.3305 59.0653 27.2568C58.8597 27.1748 58.6952 27.1051 58.5719 27.0477C58.4485 26.9821 58.3416 26.9494 58.2511 26.9494C58.1936 26.9494 58.1401 26.9821 58.0908 27.0477L57.9181 26.9494L58.5965 25.4615Z" fill="black"/>
<path d="M0 24.8978L4.08949e-08 24.4315L47.2397 24.4315V24.8978L0 24.8978Z" fill="url(#paint0_linear_14_450)"/>
<path d="M162.299 23.9607V24.427H115.059V23.9607H162.299Z" fill="url(#paint1_linear_14_450)"/>
<defs>
<linearGradient id="paint0_linear_14_450" x1="0.000118315" y1="24.2675" x2="47.2397" y2="24.2675" gradientUnits="userSpaceOnUse">
<stop stop-opacity="0"/>
<stop offset="1"/>
</linearGradient>
<linearGradient id="paint1_linear_14_450" x1="162.298" y1="24.5905" x2="115.059" y2="24.5905" gradientUnits="userSpaceOnUse">
<stop stop-opacity="0"/>
<stop offset="1"/>
</linearGradient>
</defs>
</svg>
