<svg width="141" height="11" viewBox="0 0 141 11" fill="none" xmlns="http://www.w3.org/2000/svg">
<g clip-path="url(#clip0_14_365)">
<path d="M1.05288 10.6312H0V0.263672H6.24236V1.22934H1.05288V4.75838H5.8769V5.72497H1.05288V10.6302V10.6312Z" fill="#231F20"/>
<path d="M14.299 9.66456H19.123V10.6312H13.2461V0.263672H14.299V9.66456Z" fill="#231F20"/>
<path d="M25.4992 10.6312H24.2715L28.7745 0.263672H29.7977L34.3007 10.6312H33.073L31.9331 7.90745H26.6409L25.5002 10.6312H25.4992ZM27.0341 6.94086H31.5223L29.2861 1.49346L27.0351 6.94086H27.0341Z" fill="#231F20"/>
<path d="M45.7191 1.97674C45.2657 1.303 44.5931 0.966594 43.716 0.966594C42.6345 0.966594 41.5085 1.53747 41.5085 2.8414C41.5085 5.63831 46.8155 4.15922 46.8155 7.89307C46.8155 9.78178 45.0465 10.8948 43.4089 10.8948C42.1515 10.8948 40.9376 10.4407 40.1484 9.35733L41.0986 8.66876C41.5372 9.43054 42.3708 9.9282 43.4523 9.9282C44.5339 9.9282 45.6747 9.25446 45.6747 8.0395C45.6747 5.11099 40.3677 6.7365 40.3677 2.94334C40.3677 0.936938 42.034 0 43.7151 0C44.8846 0 45.8199 0.322507 46.6387 1.25944L45.7182 1.97674H45.7191Z" fill="#231F20"/>
<path d="M54.0684 0.263672H55.1212V4.75838H60.7641V0.263672H61.8169V10.6312H60.7641V5.72497H55.1212V10.6302H54.0684V0.263672Z" fill="#231F20"/>
<path d="M74.8437 8.69796L78.3372 0.263672H79.9452V10.6312H78.8924V1.66861H78.8628L75.1203 10.6302H74.5652L70.8227 1.66861H70.7931V10.6312H69.7402V0.263672H71.3482L74.8427 8.69796H74.8437Z" fill="#231F20"/>
<path d="M92.5639 10.8948C89.4792 10.8948 87.1699 8.59555 87.1699 5.4474C87.1699 2.29925 89.4792 0 92.5639 0C95.6485 0 97.9587 2.29925 97.9587 5.4474C97.9587 8.59555 95.6494 10.8948 92.5639 10.8948ZM92.5639 0.966594C89.903 0.966594 88.3098 3.06103 88.3098 5.4474C88.3098 7.83376 89.903 9.9282 92.5639 9.9282C95.2248 9.9282 96.8189 7.83376 96.8189 5.4474C96.8189 3.06103 95.2248 0.966594 92.5639 0.966594Z" fill="#231F20"/>
<path d="M105.037 0.263672H108.472C111.06 0.263672 113.911 1.99205 113.911 5.44695C113.911 8.90185 111.059 10.6312 108.472 10.6312H105.037V0.263672ZM106.09 9.66456H108.137C111.294 9.66456 112.771 7.58495 112.771 5.44695C112.771 3.30895 111.294 1.22934 108.137 1.22934H106.09V9.66456Z" fill="#231F20"/>
<path d="M122.187 9.66456H127.728V10.6312H121.135V0.263672H127.552V1.22934H122.187V4.75838H127.201V5.72497H122.187V9.66363V9.66456Z" fill="#231F20"/>
<path d="M135.974 9.66456H140.798V10.6312H134.921V0.263672H135.974V9.66456Z" fill="#231F20"/>
</g>
<defs>
<clipPath id="clip0_14_365">
<rect width="140.798" height="10.8948" fill="white"/>
</clipPath>
</defs>
</svg>
