<svg width="69" height="49" viewBox="0 0 69 49" fill="none" xmlns="http://www.w3.org/2000/svg">
<path fill-rule="evenodd" clip-rule="evenodd" d="M19.4108 38.4497V11.1887H19.3028L15.2908 38.4497H9.652L5.3137 11.569H5.20572V38.4509H0V0.433057H8.29628L12.6346 27.423H12.7414L16.7533 0.433057H25.0496V38.4473H19.4108V38.4497ZM42.6692 38.4497L41.6386 31.552H34.3189L33.2883 38.4497H27.8126L33.8846 0.433057H42.614L48.6871 38.4461H42.6692V38.4497ZM37.899 7.17003L35.0795 26.3937H40.8264L38.0081 7.17003H37.899ZM60.3439 22.7013V17.2719H68.6966V29.3279C68.6966 35.4099 65.66 38.8852 59.8052 38.8852C53.9504 38.8852 50.9127 35.4099 50.9127 29.3279V9.55725C50.9127 3.47525 53.9492 0 59.8052 0C65.6612 0 68.6966 3.47765 68.6966 9.55725V13.2496H63.0541V9.17817C63.0541 6.46347 61.8616 5.43061 59.9636 5.43061C58.0656 5.43061 56.873 6.46227 56.873 9.17817V29.707C56.873 32.4217 58.0656 33.3994 59.9636 33.3994C61.8616 33.3994 63.0541 32.4229 63.0541 29.707V22.7013H60.3439ZM0.0659863 41.0984H68.4722V48.5456H0.0659863V41.0984ZM5.54765 47.2404V44.7117C5.54765 44.6121 5.55365 44.4669 5.56565 44.2738C5.57765 44.0807 5.58484 43.9379 5.58484 43.8419H5.57165L4.3707 47.2416H3.75762L2.55667 43.8419H2.54347C2.54347 43.9367 2.55067 44.0819 2.56267 44.2738C2.57467 44.4657 2.57947 44.6121 2.57947 44.7117V47.2404H1.70845V42.7659H2.96459L4.06236 46.006L5.16013 42.7659H6.41387V47.2404H5.54525H5.54765ZM11.0197 46.6502C10.5758 47.0857 9.97953 47.328 9.35806 47.3268C8.73659 47.3256 8.14151 47.0797 7.69881 46.643C7.47805 46.4283 7.30409 46.1716 7.18771 45.8873C7.07014 45.603 7.01255 45.2983 7.01735 44.99C7.01255 44.6841 7.07134 44.3806 7.18891 44.0987C7.30769 43.8167 7.48285 43.5624 7.70481 43.3525C8.14751 42.9218 8.74139 42.6795 9.35806 42.6795C9.97593 42.6795 10.5698 42.9194 11.0125 43.3501C11.2321 43.5624 11.406 43.8167 11.5236 44.0999C11.64 44.3818 11.6976 44.6853 11.6916 44.9912C11.6976 45.2995 11.6412 45.6054 11.5248 45.8909C11.4084 46.1764 11.2357 46.4343 11.0161 46.6502H11.0197ZM10.3695 43.9439C10.2399 43.8047 10.0827 43.6944 9.90875 43.6188C9.73478 43.5432 9.54642 43.5048 9.35686 43.5048C9.1673 43.5048 8.97894 43.5456 8.80498 43.6212C8.63101 43.698 8.47505 43.8095 8.34667 43.9487C8.07673 44.227 7.92676 44.6013 7.93156 44.99C7.92796 45.3822 8.07553 45.7613 8.34427 46.0468C8.47385 46.1896 8.63221 46.3035 8.80738 46.3815C8.98374 46.4595 9.1745 46.5003 9.36646 46.5003C9.55842 46.5003 9.74918 46.4595 9.92555 46.3815C10.1019 46.3035 10.2591 46.1896 10.3886 46.0468C10.6514 45.7565 10.7918 45.3762 10.7822 44.984C10.7882 44.5965 10.6394 44.221 10.3695 43.9427V43.9439ZM15.3916 46.6754C14.9045 47.0737 14.2866 47.2752 13.6592 47.2404H12.2507V42.7659H13.8271C14.1259 42.7515 14.4234 42.7971 14.703 42.9027C14.9825 43.0082 15.238 43.1702 15.4516 43.3777C15.6568 43.5948 15.8151 43.8515 15.9183 44.1322C16.0215 44.4129 16.0671 44.7105 16.0527 45.0092C16.0695 45.3187 16.0191 45.6269 15.9051 45.9149C15.7911 46.2028 15.6148 46.4619 15.3892 46.6742L15.3916 46.6754ZM14.7893 43.9571C14.6514 43.8239 14.487 43.7208 14.307 43.6536C14.1271 43.5876 13.9351 43.5588 13.7444 43.5708H13.1457V46.4403H13.7791C13.9663 46.4523 14.1535 46.4259 14.3298 46.3611C14.5062 46.2963 14.667 46.1968 14.8013 46.066C15.0533 45.7793 15.1817 45.405 15.1589 45.0235C15.1817 44.6325 15.0485 44.2486 14.7881 43.9571H14.7893ZM19.118 47.2428H16.6969V42.7683H19.118V43.5708H17.592V44.5773H19.1012V45.3786H17.592V46.4283H19.118V47.2428ZM19.8727 47.244V42.7695H20.7677V46.4307H22.175V47.244H19.8727ZM27.5031 47.244L27.1468 46.2747H25.4779L25.1144 47.244H24.151L25.9326 42.7695H26.7017L28.4773 47.244H27.5019H27.5031ZM26.3214 43.8707L25.7515 45.5178H26.8768L26.3202 43.8707H26.3214ZM30.8552 43.5096C30.6645 43.506 30.4761 43.5432 30.3009 43.6176C30.1258 43.692 29.9686 43.8023 29.839 43.9415C29.7047 44.0771 29.5979 44.239 29.5271 44.4165C29.4551 44.5941 29.4203 44.7848 29.4227 44.9756C29.4155 45.375 29.5607 45.7613 29.8294 46.0576C29.9566 46.204 30.115 46.3215 30.2925 46.3995C30.4701 46.4775 30.6633 46.5159 30.8576 46.5111C31.1444 46.5219 31.4263 46.4403 31.6626 46.2783C31.899 46.1164 32.0766 45.8825 32.1701 45.6102H30.4737V44.8388H33.2067C33.2307 45.4866 33.004 46.1188 32.5757 46.6034C32.3597 46.8433 32.0934 47.0317 31.7958 47.1576C31.4983 47.2836 31.1779 47.3424 30.8552 47.3304C30.5469 47.3316 30.2409 47.2716 29.9554 47.1552C29.6699 47.0377 29.4107 46.8649 29.1924 46.6466C28.974 46.4283 28.8012 46.168 28.6849 45.8825C28.5673 45.597 28.5085 45.2911 28.5097 44.9816C28.5025 44.6745 28.5613 44.3698 28.6813 44.0867C28.8012 43.8036 28.98 43.5504 29.2056 43.3417C29.4287 43.1258 29.6927 42.9578 29.9818 42.8439C30.2709 42.7311 30.5793 42.6759 30.8888 42.6819C31.3423 42.6759 31.7886 42.8043 32.1701 43.049C32.5577 43.2877 32.8504 43.6524 32.998 44.0819H31.9494C31.8318 43.9007 31.6686 43.752 31.4767 43.6524C31.2847 43.5516 31.0712 43.5037 30.854 43.5096H30.8528H30.8552ZM36.2217 47.2416H33.8006V42.7671H36.2217V43.5696H34.6956V44.5761H36.2049V45.3774H34.6956V46.4271H36.2217V47.2416ZM39.8126 47.2428L37.8138 44.1286L37.839 47.2428H36.9775V42.7683H37.815L39.7886 45.8645L39.7694 42.7695H40.6248V47.244H39.8138L39.8126 47.2428ZM42.8935 43.5696V47.2416H41.9865V43.5696H41.0987V42.7671H43.7813V43.5696H42.8935ZM48.3284 43.5072C48.1376 43.5036 47.9493 43.5408 47.7741 43.6152C47.5989 43.6896 47.4418 43.8 47.311 43.9391C47.1766 44.0747 47.0711 44.2366 46.9991 44.4141C46.9283 44.5917 46.8923 44.7824 46.8959 44.9732C46.8899 45.3726 47.0351 45.7589 47.3026 46.0552C47.4298 46.2016 47.5881 46.3191 47.7669 46.3971C47.9445 46.4751 48.1376 46.5135 48.332 46.5087C48.6187 46.5195 48.9007 46.4379 49.137 46.2759C49.3734 46.114 49.5509 45.8801 49.6445 45.6078H47.9493V44.8364H50.6823C50.7063 45.4842 50.4795 46.1164 50.0512 46.601C49.8353 46.841 49.5689 47.0293 49.2714 47.1552C48.9739 47.2812 48.6535 47.34 48.3308 47.328C48.0225 47.3292 47.7165 47.2692 47.431 47.1516C47.1454 47.0341 46.8863 46.8613 46.6679 46.643C46.4496 46.4247 46.2768 46.1656 46.1592 45.8789C46.0417 45.5934 45.9829 45.2875 45.9841 44.978C45.9769 44.6709 46.0357 44.3662 46.1556 44.0831C46.2756 43.8 46.4544 43.5468 46.6799 43.3381C46.9031 43.1222 47.167 42.953 47.4562 42.8403C47.7453 42.7275 48.0537 42.6723 48.3632 42.6783C48.8167 42.6723 49.263 42.8007 49.6457 43.0454C50.032 43.2841 50.3236 43.65 50.4711 44.0783H49.4214C49.3038 43.8971 49.1418 43.7484 48.9499 43.6488C48.7579 43.548 48.5444 43.5001 48.3284 43.5061V43.5036V43.5072ZM53.2366 45.6198L54.4879 47.2416H53.4285L52.1688 45.4206V47.2416H51.2738V42.7671H52.7999C53.2246 42.7431 53.6421 42.8763 53.9756 43.1402C54.1328 43.2793 54.2564 43.4521 54.3367 43.6464C54.4171 43.8407 54.4531 44.0495 54.4399 44.2594C54.4447 44.5977 54.3248 44.9252 54.1016 45.1795C53.9936 45.3067 53.8628 45.411 53.7141 45.4866C53.5653 45.5622 53.4033 45.6078 53.2378 45.6209H53.2366V45.6198ZM52.6403 43.5708H52.1676V44.9624H52.6403C52.8623 44.9768 53.0842 44.9384 53.2882 44.8496C53.383 44.7932 53.4609 44.7105 53.5101 44.6121C53.5593 44.5125 53.5797 44.401 53.5677 44.2906C53.5677 43.8095 53.2582 43.5696 52.6391 43.5696L52.6403 43.5708ZM58.8586 46.6514C58.5311 46.9801 58.1136 47.2044 57.6577 47.2956C57.203 47.3868 56.7315 47.34 56.3019 47.1624C55.8736 46.9849 55.5065 46.6838 55.2486 46.2975C54.9906 45.9113 54.8526 45.4566 54.8538 44.9924C54.849 44.6865 54.9066 44.383 55.0254 44.1011C55.1442 43.8191 55.3193 43.5648 55.5413 43.3549C55.984 42.923 56.5779 42.6807 57.197 42.6807C57.8148 42.6807 58.4087 42.9206 58.8526 43.3525C59.0722 43.5648 59.2461 43.8191 59.3625 44.1023C59.4789 44.3842 59.5365 44.6877 59.5305 44.9936C59.5365 45.3019 59.4801 45.6078 59.3649 45.8933C59.2497 46.1788 59.0758 46.4367 58.855 46.6526H58.8574L58.8586 46.6514ZM58.2084 43.9451C58.0788 43.8059 57.9216 43.6956 57.7476 43.62C57.5737 43.5444 57.3853 43.5061 57.1958 43.5061C57.0062 43.5061 56.8178 43.5468 56.6439 43.6224C56.4699 43.6992 56.3139 43.8107 56.1844 43.9499C55.9144 44.2282 55.7645 44.6025 55.7693 44.9912C55.7657 45.3834 55.9132 45.7625 56.182 46.048C56.3115 46.1908 56.4699 46.3047 56.6451 46.3827C56.8214 46.4607 57.0122 46.5015 57.2042 46.5015C57.3961 46.5015 57.5869 46.4607 57.7632 46.3827C57.9396 46.3047 58.0968 46.1908 58.2263 46.048C58.4891 45.7577 58.6307 45.3774 58.6211 44.9852C58.6271 44.5977 58.4783 44.2222 58.2084 43.9439V43.9451ZM62.8802 46.8374C62.7362 47.0017 62.5562 47.1313 62.3559 47.2152C62.1543 47.3004 61.9372 47.3388 61.72 47.328C61.5077 47.3364 61.2953 47.3016 61.0974 47.2248C60.8994 47.148 60.7182 47.0329 60.5659 46.8841C60.4171 46.7342 60.3007 46.5566 60.2239 46.3599C60.1471 46.1632 60.1112 45.9532 60.1184 45.7433V42.7695H61.0122V45.609C61.0122 46.21 61.2449 46.5099 61.7092 46.5099C61.8172 46.5207 61.9264 46.5015 62.0248 46.4547C62.1231 46.4079 62.2059 46.3347 62.2659 46.2435C62.3619 46.0468 62.4063 45.8285 62.3919 45.609V42.7695H63.2869V45.6281C63.3073 46.0672 63.1645 46.4991 62.8862 46.8397H62.8814L62.8802 46.8374ZM66.1615 45.537C65.9659 45.5958 65.7632 45.6293 65.5592 45.6365H64.9498V47.2392H64.0559V42.7647H65.5196C66.5874 42.7647 67.1213 43.2241 67.1213 44.1442C67.1489 44.4525 67.0685 44.7608 66.8934 45.0152C66.7182 45.2695 66.459 45.4554 66.1627 45.5394L66.1615 45.537ZM65.4405 43.566H64.9498V44.8352H65.4141C65.9671 44.8352 66.2431 44.6253 66.2431 44.2042C66.2431 43.7832 65.9755 43.5708 65.4393 43.5648L65.4405 43.566Z" fill="black"/>
</svg>
