<svg width="60" height="60" viewBox="0 0 60 60" fill="none" xmlns="http://www.w3.org/2000/svg">
<g clip-path="url(#clip0_14_408)">
<path d="M10.6132 35.887L9.77824 34.6902C9.74352 34.6942 9.69103 34.6958 9.62077 34.6958H8.69855V35.887H7.93945V31.8008H9.62077C9.97447 31.8008 10.283 31.8589 10.5462 31.976C10.8087 32.0931 11.0106 32.2603 11.1503 32.4783C11.29 32.6964 11.3602 32.9556 11.3602 33.2552C11.3602 33.5548 11.2851 33.8269 11.1357 34.049C10.9855 34.2711 10.7707 34.4366 10.4905 34.5448L11.4305 35.8878H10.6132V35.887ZM10.3387 32.6527C10.1675 32.513 9.91633 32.4428 9.58524 32.4428H8.69774V34.0716H9.58524C9.91633 34.0716 10.1667 34.0005 10.3387 33.8584C10.5099 33.7163 10.5955 33.5152 10.5955 33.2544C10.5955 32.9935 10.5099 32.7933 10.3387 32.6527Z" fill="#231F20"/>
<path d="M16.4387 35.2516V35.888H13.374V31.8018H16.3571V32.4381H14.1331V33.5008H16.106V34.1251H14.1331V35.2516H16.4387Z" fill="#231F20"/>
<path d="M18.8051 35.8114C18.5112 35.7218 18.2786 35.6031 18.1074 35.4553L18.3699 34.8658C18.537 34.9982 18.7422 35.1064 18.986 35.1896C19.2291 35.2736 19.4738 35.3156 19.7185 35.3156C20.0221 35.3156 20.249 35.2671 20.3984 35.1694C20.5486 35.0725 20.6229 34.9441 20.6229 34.7842C20.6229 34.6671 20.5809 34.571 20.4978 34.4951C20.4138 34.4192 20.308 34.3603 20.1796 34.3175C20.0512 34.2747 19.876 34.2262 19.6539 34.1713C19.3422 34.0978 19.0902 34.0235 18.898 33.9492C18.705 33.8749 18.5403 33.7594 18.4022 33.602C18.2641 33.4445 18.1946 33.2313 18.1946 32.9624C18.1946 32.7371 18.256 32.5312 18.3788 32.347C18.5015 32.1621 18.6864 32.0151 18.9335 31.9061C19.1807 31.7971 19.4835 31.7422 19.8412 31.7422C20.09 31.7422 20.3354 31.7737 20.5769 31.8359C20.8184 31.898 21.0267 31.9877 21.2011 32.104L20.9621 32.6935C20.7828 32.5885 20.5963 32.5086 20.4017 32.4544C20.207 32.4003 20.0181 32.3729 19.8356 32.3729C19.536 32.3729 19.3131 32.4238 19.1669 32.5247C19.0208 32.6256 18.9481 32.7605 18.9481 32.9277C18.9481 33.0448 18.9901 33.1401 19.0732 33.2135C19.1572 33.2878 19.263 33.346 19.3914 33.3888C19.5198 33.4316 19.6951 33.48 19.9171 33.5349C20.2208 33.6052 20.4695 33.6779 20.6641 33.7538C20.8587 33.8297 21.0251 33.9452 21.1632 34.101C21.3013 34.2569 21.3707 34.4669 21.3707 34.7317C21.3707 34.9578 21.3094 35.1622 21.1866 35.3447C21.0639 35.528 20.8781 35.6733 20.6294 35.7824C20.3799 35.8914 20.077 35.9463 19.7185 35.9463C19.4035 35.9463 19.0991 35.9011 18.8051 35.8122V35.8114Z" fill="#231F20"/>
<path d="M23.292 31.8008H24.0511V35.887H23.292V31.8008Z" fill="#231F20"/>
<path d="M26.3213 31.8008H28.1076C28.5437 31.8008 28.9305 31.8856 29.2688 32.0552C29.6072 32.2247 29.8705 32.4638 30.057 32.7731C30.2436 33.0824 30.3372 33.4393 30.3372 33.8447C30.3372 34.2501 30.2436 34.6062 30.057 34.9163C29.8705 35.2256 29.6072 35.4654 29.2688 35.6342C28.9305 35.8038 28.5429 35.8886 28.1076 35.8886H26.3213V31.8024V31.8008ZM28.0729 35.245C28.3725 35.245 28.6365 35.1876 28.8635 35.073C29.0912 34.9583 29.2664 34.7952 29.3892 34.5828C29.5119 34.3704 29.5733 34.1249 29.5733 33.8439C29.5733 33.5629 29.5119 33.3174 29.3892 33.1058C29.2664 32.8934 29.0912 32.7303 28.8635 32.6156C28.6357 32.5009 28.3725 32.4436 28.0729 32.4436H27.0804V35.2458H28.0729V35.245Z" fill="#231F20"/>
<path d="M35.3752 35.2516V35.888H32.3105V31.8018H35.2936V32.4381H33.0696V33.5008H35.0425V34.1251H33.0696V35.2516H35.3752Z" fill="#231F20"/>
<path d="M41.0196 31.8008V35.887H40.3953L38.1423 33.1203V35.887H37.3896V31.8008H38.0139L40.2669 34.5683V31.8008H41.0196Z" fill="#231F20"/>
<path d="M44.0591 35.6741C43.7264 35.4932 43.4656 35.2429 43.2766 34.9239C43.0876 34.6049 42.9932 34.2448 42.9932 33.8434C42.9932 33.4421 43.0885 33.0827 43.279 32.7637C43.4696 32.4448 43.7313 32.1944 44.064 32.0135C44.3967 31.8326 44.769 31.7422 45.1816 31.7422C45.5159 31.7422 45.822 31.8003 46.0982 31.9174C46.3744 32.0345 46.6077 32.2033 46.7983 32.4254L46.3081 32.8865C46.0126 32.5675 45.6484 32.4076 45.2163 32.4076C44.9361 32.4076 44.685 32.469 44.4629 32.5917C44.2408 32.7145 44.068 32.8849 43.9437 33.1021C43.8193 33.3201 43.7571 33.5672 43.7571 33.8434C43.7571 34.1196 43.8193 34.3667 43.9437 34.5848C44.068 34.8028 44.2416 34.9732 44.4629 35.0959C44.685 35.2187 44.9361 35.2801 45.2163 35.2801C45.6484 35.2801 46.0118 35.1185 46.3081 34.7955L46.7983 35.2623C46.6077 35.4844 46.3736 35.6531 46.095 35.7702C45.8164 35.8873 45.5103 35.9455 45.1752 35.9455C44.7625 35.9455 44.3902 35.855 44.0575 35.6741H44.0591Z" fill="#231F20"/>
<path d="M51.7619 35.2516V35.888H48.6973V31.8018H51.6803V32.4381H49.4564V33.5008H51.4292V34.1251H49.4564V35.2516H51.7619Z" fill="#231F20"/>
<path d="M13.4505 29.5155L13.4424 24.6241L11.0496 28.7564H10.8453L8.45256 24.6403V29.5155H8.04395V23.7988H8.39523L10.9511 28.2169L13.507 23.7988H13.8502L13.8583 29.5155H13.4497H13.4505Z" fill="#231F20"/>
<path d="M21.0219 27.9068H17.7061L16.9793 29.5155H16.5303L19.1597 23.7988H19.5763L22.2057 29.5155H21.7567L21.0219 27.9068ZM20.8668 27.5555L19.364 24.2567L17.8692 27.5555H20.866H20.8668Z" fill="#231F20"/>
<path d="M26.5751 26.6979L25.2927 28.0126V29.5155H24.876V23.7988H25.2927V27.474L28.8612 23.7988H29.3676L26.852 26.3959L29.5388 29.5155H29.0324L26.5743 26.6979H26.5751Z" fill="#231F20"/>
<path d="M36.1941 29.14V29.5155H32.25V23.7988H36.0721V24.1743H32.6667V26.4282H35.7128V26.7956H32.6667V29.1391H36.1949L36.1941 29.14Z" fill="#231F20"/>
<path d="M39.8979 28.9277C39.4981 28.5086 39.2979 27.8957 39.2979 27.0906V23.7998H39.7145V27.0744C39.7145 27.777 39.8752 28.3019 40.1967 28.6507C40.5181 28.9996 40.9832 29.1732 41.5929 29.1732C42.2026 29.1732 42.6597 28.9988 42.9811 28.6507C43.3025 28.3027 43.4632 27.777 43.4632 27.0744V23.7998H43.8799V27.0906C43.8799 27.8965 43.6788 28.5086 43.2758 28.9277C42.8729 29.3469 42.3092 29.5568 41.5856 29.5568C40.8621 29.5568 40.2992 29.3469 39.8995 28.9277H39.8979Z" fill="#231F20"/>
<path d="M51.1956 24.3092C51.6043 24.6492 51.8078 25.1216 51.8078 25.7264C51.8078 26.3313 51.6035 26.7948 51.1956 27.1348C50.787 27.4748 50.2242 27.6452 49.5054 27.6452H47.8718V29.5155H47.4551V23.7988H49.5046C50.2234 23.7988 50.787 23.9692 51.1948 24.3092H51.1956ZM50.9017 26.8691C51.2231 26.6026 51.3838 26.2215 51.3838 25.7256C51.3838 25.2298 51.2231 24.8478 50.9017 24.5781C50.5803 24.3084 50.1151 24.1735 49.5054 24.1735H47.8718V27.2681H49.5054C50.1151 27.2681 50.5803 27.1348 50.9017 26.8683V26.8691Z" fill="#231F20"/>
<path d="M29.873 59.1805C46.0591 59.1805 59.1805 46.0591 59.1805 29.873C59.1805 13.6869 46.0591 0.56543 29.873 0.56543C13.6869 0.56543 0.56543 13.6869 0.56543 29.873C0.56543 46.0591 13.6869 59.1805 29.873 59.1805Z" stroke="#231F20" stroke-width="1.13057" stroke-miterlimit="10"/>
</g>
<defs>
<clipPath id="clip0_14_408">
<rect width="59.7457" height="59.7457" fill="white"/>
</clipPath>
</defs>
</svg>
