<svg width="147" height="24" viewBox="0 0 147 24" fill="none" xmlns="http://www.w3.org/2000/svg">
<path d="M61.4954 10.657C60.6861 10.657 59.9012 10.5491 59.1406 10.3332C58.3898 10.1075 57.7853 9.81799 57.327 9.46472L58.1314 7.66892C58.5702 7.99275 59.0919 8.2528 59.6964 8.44906C60.301 8.64532 60.9055 8.74345 61.5101 8.74345C62.1829 8.74345 62.6801 8.64532 63.0019 8.44906C63.3237 8.24299 63.4846 7.97313 63.4846 7.63948C63.4846 7.39416 63.3871 7.19299 63.1921 7.03598C63.0068 6.86916 62.763 6.73668 62.4608 6.63855C62.1682 6.54042 61.7685 6.43247 61.2614 6.31472C60.4814 6.12827 59.8427 5.94182 59.3454 5.75537C58.8481 5.56892 58.4191 5.26962 58.0583 4.85747C57.7073 4.44533 57.5318 3.89579 57.5318 3.20888C57.5318 2.61028 57.6927 2.07056 58.0144 1.58972C58.3362 1.09906 58.8189 0.711448 59.4624 0.426869C60.1157 0.142289 60.9104 0 61.8465 0C62.4998 0 63.1384 0.0785044 63.7625 0.235513C64.3865 0.392523 64.9326 0.618224 65.4006 0.912616L64.6693 2.72313C63.7235 2.18341 62.7776 1.91355 61.8318 1.91355C61.1688 1.91355 60.6764 2.02149 60.3546 2.23738C60.0426 2.45327 59.8866 2.73785 59.8866 3.09112C59.8866 3.44439 60.067 3.70934 60.4277 3.88598C60.7983 4.0528 61.3589 4.21962 62.1097 4.38645C62.8898 4.5729 63.5285 4.75934 64.0257 4.94579C64.523 5.13224 64.9472 5.42663 65.2982 5.82897C65.659 6.23131 65.8394 6.77593 65.8394 7.46285C65.8394 8.05163 65.6736 8.59135 65.3421 9.08201C65.0203 9.56285 64.5328 9.94556 63.8795 10.2301C63.2262 10.5147 62.4315 10.657 61.4954 10.657Z" fill="black"/>
<path d="M49.2152 0.176636H51.5846V8.53738H56.7184V10.4804H49.2152V0.176636Z" fill="black"/>
<path d="M47.1837 8.56682V10.4804H39.2564V0.176636H46.9935V2.09019H41.6112V4.32757H46.3646V6.18224H41.6112V8.56682H47.1837Z" fill="black"/>
<path d="M27.0264 0.176636H31.6775C32.7891 0.176636 33.769 0.392524 34.6174 0.8243C35.4754 1.24626 36.1385 1.84486 36.6065 2.62009C37.0843 3.39533 37.3232 4.29813 37.3232 5.3285C37.3232 6.35888 37.0843 7.26168 36.6065 8.03691C36.1385 8.81215 35.4754 9.41565 34.6174 9.84743C33.769 10.2694 32.7891 10.4804 31.6775 10.4804H27.0264V0.176636ZM31.5605 8.52266C32.5843 8.52266 33.3985 8.23808 34.0031 7.66892C34.6174 7.08995 34.9245 6.30981 34.9245 5.3285C34.9245 4.3472 34.6174 3.57196 34.0031 3.0028C33.3985 2.42383 32.5843 2.13435 31.5605 2.13435H29.3959V8.52266H31.5605Z" fill="black"/>
<path d="M19.4977 10.657C18.4349 10.657 17.4744 10.4264 16.6164 9.96518C15.7681 9.50397 15.1001 8.87102 14.6126 8.06635C14.1348 7.25187 13.8959 6.33925 13.8959 5.3285C13.8959 4.31776 14.1348 3.41005 14.6126 2.60537C15.1001 1.79089 15.7681 1.15304 16.6164 0.691822C17.4744 0.230608 18.4349 0 19.4977 0C20.5605 0 21.5161 0.230608 22.3644 0.691822C23.2127 1.15304 23.8807 1.79089 24.3682 2.60537C24.8557 3.41005 25.0995 4.31776 25.0995 5.3285C25.0995 6.33925 24.8557 7.25187 24.3682 8.06635C23.8807 8.87102 23.2127 9.50397 22.3644 9.96518C21.5161 10.4264 20.5605 10.657 19.4977 10.657ZM19.4977 8.6257C20.1023 8.6257 20.6483 8.48831 21.1358 8.21355C21.6234 7.92897 22.0036 7.53645 22.2767 7.03598C22.5594 6.53551 22.7008 5.96635 22.7008 5.3285C22.7008 4.69065 22.5594 4.12149 22.2767 3.62103C22.0036 3.12056 21.6234 2.73294 21.1358 2.45818C20.6483 2.1736 20.1023 2.03131 19.4977 2.03131C18.8932 2.03131 18.3471 2.1736 17.8596 2.45818C17.3721 2.73294 16.9869 3.12056 16.7041 3.62103C16.4311 4.12149 16.2946 4.69065 16.2946 5.3285C16.2946 5.96635 16.4311 6.53551 16.7041 7.03598C16.9869 7.53645 17.3721 7.92897 17.8596 8.21355C18.3471 8.48831 18.8932 8.6257 19.4977 8.6257Z" fill="black"/>
<path d="M9.74098 10.4804L9.72635 4.29813L6.71338 9.39112H5.64568L2.64734 4.43061V10.4804H0.424177V0.176636H2.38407L6.2161 6.57967L9.98962 0.176636H11.9349L11.9641 10.4804H9.74098Z" fill="black"/>
<path d="M33.8761 18.7602L32.5013 20.2027V22.8081H30.1465V12.5043H32.5013V17.3177L37.0353 12.5043H39.668L35.4265 17.0969L39.9167 22.8081H37.1523L33.8761 18.7602Z" fill="black"/>
<path d="M21.1732 12.5043H23.5426V20.8651H28.6763V22.8081H21.1732V12.5043Z" fill="black"/>
<path d="M16.5715 20.6001H11.818L10.9112 22.8081H8.48326L13.0466 12.5043H15.3868L19.9647 22.8081H17.4783L16.5715 20.6001ZM15.8255 18.7896L14.202 14.8448L12.5786 18.7896H15.8255Z" fill="black"/>
<path d="M3.27624 14.4473H0V12.5043H8.92189V14.4473H5.64566V22.8081H3.27624V14.4473Z" fill="black"/>
<path d="M68.812 17.6564C68.812 16.6457 68.5683 15.7379 68.0808 14.9333C67.5932 14.1188 66.9253 13.4809 66.077 13.0197C65.2287 12.5585 64.2731 12.3279 63.2103 12.3279C62.1474 12.3279 61.187 12.5585 60.3289 13.0197C59.4806 13.4809 58.8127 14.1188 58.3251 14.9333C57.8474 15.7379 57.6085 16.6457 57.6085 17.6564C57.6085 18.6671 57.8474 19.5798 58.3251 20.3942C58.8127 21.1989 59.4806 21.8318 60.3289 22.293C61.187 22.7543 62.1474 22.9849 63.2103 22.9849C64.2731 22.9849 65.2287 22.7543 66.077 22.293C66.9253 21.8318 67.5932 21.1989 68.0808 20.3942C68.5683 19.5798 68.812 18.6671 68.812 17.6564ZM72.9078 12.1325L76.5285 18.1825L80.0939 12.1325H82.6183L82.6496 23.1802H79.6871L79.6747 17.9725L77.2384 22.0909H75.7528L73.3318 18.0857V23.1802H70.3694V12.1325H72.9078ZM87.023 12.1325L90.6438 18.1825L94.2092 12.1325H96.7336L96.7649 23.1802H93.8024L93.79 17.9725L91.3536 22.0909H89.868L87.4471 18.0857V23.1802H84.4847V12.1325H87.023ZM120.032 12.5045H117.692V18.7604L112.602 12.5045H110.642V22.8082H112.983V16.5524L118.087 22.8082H120.032V12.5045ZM124.97 12.5045H122.601V22.8082H124.97V12.5045ZM137.854 12.1325L140.38 16.3604L142.906 12.1325H146.095L141.832 19.261V23.1802H138.724V19.2317L136.083 14.8195H132.406V23.1802H129.298V14.8195H126.021V12.1325H137.854ZM49.3484 17.6564C49.3484 17.0185 49.4849 16.4494 49.7579 15.9489C50.0407 15.4485 50.4307 15.0608 50.928 14.7861C51.4253 14.5015 51.9909 14.3592 52.6247 14.3592C53.6485 14.3592 54.5066 14.7615 55.1989 15.5662L56.72 14.1531C56.2324 13.5643 55.6279 13.1129 54.9063 12.7989C54.1945 12.4849 53.395 12.3279 52.5077 12.3279C51.4546 12.3279 50.5039 12.5585 49.6556 13.0197C48.817 13.4711 48.1539 14.104 47.6664 14.9185C47.1886 15.7232 46.9497 16.6358 46.9497 17.6564C46.9498 18.6769 47.1886 19.5945 47.6664 20.4089C48.1539 21.2136 48.817 21.8465 49.6556 22.3078C50.5039 22.7592 51.4497 22.9849 52.493 22.9849C53.3803 22.9849 54.1848 22.8279 54.9063 22.5139C55.6279 22.1998 56.2324 21.7435 56.72 21.1449L55.1989 19.7318C54.5066 20.5463 53.6485 20.9536 52.6247 20.9536V20.5816C53.5356 20.5816 54.2927 20.2257 54.918 19.49L55.1675 19.1965L57.2267 21.1095L57.0058 21.3807C56.4801 22.0262 55.8274 22.5183 55.053 22.8553C54.3037 23.1814 53.4777 23.3463 52.5801 23.3563L52.493 23.3568C51.3949 23.3568 50.3889 23.1188 49.4828 22.6366L49.4806 22.6354L49.4783 22.6342C48.5841 22.1424 47.8728 21.4641 47.3508 20.6026L47.3494 20.6003L47.3481 20.5981C46.8421 19.7355 46.5881 18.7687 46.5803 17.707L46.5801 17.6564C46.5801 16.5748 46.8341 15.5951 47.3491 14.7277L47.3494 14.7271L47.3498 14.7266C47.872 13.8543 48.5843 13.1745 49.4812 12.6917C50.388 12.199 51.3996 11.9559 52.5077 11.9559L52.5947 11.9564C53.492 11.9664 54.3139 12.1314 55.0547 12.4582C55.8269 12.7946 56.4784 13.2804 57.0039 13.915L57.2288 14.1866L55.1692 16.1L54.9194 15.8097C54.2947 15.0835 53.5372 14.7312 52.6247 14.7312C52.0478 14.7312 51.5465 14.86 51.1107 15.1094L51.1083 15.1108L51.1059 15.1121C50.67 15.353 50.3298 15.6902 50.0807 16.1301C49.8418 16.569 49.718 17.0746 49.718 17.6564C49.718 18.238 49.8418 18.7436 50.0806 19.1824C50.3299 19.6226 50.6707 19.9656 51.1081 20.2165C51.5442 20.457 52.0466 20.5816 52.6247 20.5816V20.9536C51.9909 20.9536 51.4253 20.8162 50.928 20.5414C50.4308 20.2568 50.0407 19.8643 49.7579 19.3639C49.4849 18.8634 49.3484 18.2942 49.3484 17.6564ZM66.0438 17.6564C66.0438 17.0759 65.9157 16.5713 65.6679 16.1328L65.6666 16.1304L65.6652 16.1279C65.425 15.6875 65.0939 15.3508 64.6678 15.1106L64.6654 15.1092L64.663 15.1078C64.2359 14.8585 63.7546 14.7312 63.2103 14.7312C62.666 14.7312 62.1847 14.8585 61.7576 15.1078L61.7552 15.1092L61.7528 15.1106C61.3263 15.351 60.9896 15.6884 60.7395 16.1301C60.5005 16.569 60.3767 17.0746 60.3767 17.6564C60.3768 18.238 60.5005 18.7436 60.7394 19.1824C60.9895 19.6241 61.3265 19.9672 61.7541 20.2176C62.1817 20.4582 62.6642 20.5816 63.2103 20.5816V20.9536C62.6057 20.9536 62.0597 20.8162 61.5722 20.5414C61.0846 20.2568 60.6994 19.8643 60.4167 19.3639C60.1437 18.8634 60.0071 18.2942 60.0071 17.6564C60.0071 17.0185 60.1437 16.4494 60.4167 15.9489C60.6994 15.4484 61.0846 15.0608 61.5722 14.7861C62.0597 14.5015 62.6057 14.3592 63.2103 14.3592C63.8148 14.3592 64.3609 14.5015 64.8484 14.7861C65.3359 15.0608 65.7162 15.4485 65.9892 15.9489C66.272 16.4494 66.4134 17.0185 66.4134 17.6564C66.4134 18.2942 66.272 18.8634 65.9892 19.3639C65.7162 19.8643 65.3359 20.2568 64.8484 20.5414C64.3609 20.8162 63.8148 20.9536 63.2103 20.9536V20.5816C63.7563 20.5816 64.2388 20.4582 64.6664 20.2176C65.0936 19.9674 65.425 19.6251 65.6652 19.1848L65.6679 19.18C65.908 18.7552 66.0356 18.2684 66.0434 17.7106L66.0438 17.6564ZM101.251 18.1863V12.5045H98.8818V18.2746C98.8818 19.7858 99.2865 20.9487 100.096 21.7632C100.915 22.5776 102.056 22.9849 103.518 22.9849C104.981 22.9849 106.117 22.5776 106.926 21.7632C107.745 20.9487 108.155 19.7858 108.155 18.2746V12.5045H105.815V18.1863C105.815 19.1382 105.62 19.8398 105.23 20.2912C104.84 20.7328 104.274 20.9536 103.533 20.9536V20.5816C104.198 20.5816 104.65 20.3866 104.953 20.0448C105.247 19.702 105.433 19.1336 105.444 18.2709L105.445 18.1863V12.1325H108.524V18.2746C108.524 19.8528 108.095 21.1225 107.188 22.0261C106.291 22.9284 105.05 23.3568 103.518 23.3568C101.986 23.3568 100.742 22.9283 99.836 22.0277L99.8353 22.027L99.8344 22.0262C98.9362 21.1222 98.5122 19.8525 98.5122 18.2746V12.1325H101.621V18.1863C101.621 19.0665 101.804 19.6575 102.106 20.0242C102.398 20.3777 102.849 20.5816 103.533 20.5816V20.9536C102.012 20.9535 101.251 20.0311 101.251 18.1863ZM69.1815 17.7067C69.1735 18.7609 68.9136 19.7237 68.3973 20.5862L68.3968 20.587L68.3963 20.5879C67.8737 21.4505 67.1567 22.1288 66.2527 22.6203C65.345 23.1138 64.328 23.3568 63.2103 23.3568C62.0924 23.3568 61.0713 23.1138 60.1548 22.6212L60.154 22.6208L60.1532 22.6203C59.2492 22.1288 58.5322 21.4505 58.0096 20.5879L58.0082 20.5856L58.0069 20.5834C57.4932 19.7076 57.2389 18.7289 57.2389 17.6564C57.2389 16.5839 57.4932 15.6093 58.0079 14.7425L58.0082 14.7419L58.0085 14.7413C58.5309 13.8687 59.248 13.1846 60.1532 12.6924L60.154 12.692L60.1548 12.6916C61.0713 12.199 62.0924 11.9559 63.2103 11.9559C64.328 11.9559 65.345 12.199 66.2527 12.6924C67.1573 13.1843 67.874 13.8678 68.3963 14.7396C68.9217 15.6068 69.1816 16.5825 69.1816 17.6564L69.1815 17.7067ZM70.739 22.8082H72.9622V16.7585L75.9605 21.719H77.0283L80.0412 16.626L80.0558 22.8082H82.279L82.2497 12.5045H80.3045L76.531 18.9075L72.6989 12.5045H70.739V22.8082ZM84.8543 22.8082H87.0775V16.7585L90.0758 21.719H91.1435L94.1565 16.626L94.1711 22.8082H96.3943L96.365 12.5045H94.4197L90.6462 18.9075L86.8142 12.5045H84.8543V22.8082ZM120.402 23.1802H117.912L113.352 17.5915V23.1802H110.273V12.1325H112.777L117.323 17.719V12.1325H120.402V23.1802ZM125.34 23.1802H122.231V12.1325H125.34V23.1802ZM126.391 14.4475H129.667V22.8082H132.037V14.4475H136.292L139.093 19.1283V22.8082H141.463V19.1578L145.441 12.5045H143.115L140.38 17.0823L137.645 12.5045H126.391V14.4475Z" fill="black"/>
</svg>
