<svg width="73" height="57" viewBox="0 0 73 57" fill="none" xmlns="http://www.w3.org/2000/svg">
<g clip-path="url(#clip0_14_428)">
<path d="M24.1901 0L4.64062 45.3635H6.13166L11.601 32.5296L12.1744 31.1915L25.0847 0.89462V31.2265L15.1259 31.2614L12.1744 31.1915L11.601 32.5296H25.0847V45.3635H25.6047V0H24.1901Z" fill="#231F20"/>
<path d="M1.2387 54.2646H0.84765L0 56.5498H0.333161L0.589859 55.8311H1.47902L1.74773 56.5498H2.09291L1.2398 54.2646H1.2387ZM0.659769 55.5973L0.905543 54.9364C0.952514 54.7966 0.99293 54.6557 1.03444 54.5213H1.0399C1.07485 54.6557 1.11636 54.7901 1.1688 54.9364L1.41457 55.5907H0.660861V55.5962L0.659769 55.5973Z" fill="#231F20"/>
<path d="M5.27155 56.1641C5.14265 56.1641 5.0498 56.2515 5.0498 56.3803C5.0498 56.5092 5.13719 56.5966 5.26609 56.5966C5.39498 56.5966 5.48783 56.5027 5.48783 56.3803C5.48783 56.258 5.40044 56.1641 5.27155 56.1641Z" fill="#231F20"/>
<path d="M10.1627 55.223C10.1627 55.5791 10.1681 55.8544 10.1976 56.1635H10.1922C10.0753 55.9352 9.92893 55.6905 9.74214 55.4273L8.94146 54.2705H8.59082V56.5557H8.89449V55.5791C8.89449 55.199 8.88903 54.9248 8.87155 54.6386H8.88357C9.01246 54.8844 9.17631 55.1411 9.35108 55.3989L10.1463 56.5557H10.474V54.2705H10.1703V55.2285L10.1649 55.223H10.1627Z" fill="#231F20"/>
<path d="M13.8458 56.1641C13.7169 56.1641 13.624 56.2515 13.624 56.3803C13.624 56.5092 13.7114 56.5966 13.8403 56.5966C13.9692 56.5966 14.062 56.5027 14.062 56.3803C14.062 56.258 13.9747 56.1641 13.8458 56.1641Z" fill="#231F20"/>
<path d="M16.873 54.5159H17.6333V56.5498H17.961V54.5159H18.7202V54.2646H16.873V54.5159Z" fill="#231F20"/>
<path d="M27.0647 54.2649L26.6201 55.3692C26.5087 55.6554 26.4213 55.9067 26.3569 56.1404H26.3449C26.2804 55.9012 26.1985 55.6554 26.0936 55.3692L25.6665 54.2649H25.2569L25.0811 56.55H25.3913L25.4557 55.568C25.4787 55.2229 25.4961 54.8438 25.5027 54.5565H25.5082C25.5781 54.8252 25.6775 55.1235 25.8009 55.4446L26.204 56.5315H26.4497L26.8943 55.4206C27.0232 55.1049 27.1226 54.8187 27.21 54.5554H27.222C27.222 54.8416 27.2395 55.2218 27.257 55.5429L27.3214 56.5479H27.6371L27.4798 54.2627H27.0647V54.2649Z" fill="#231F20"/>
<path d="M31.8237 54.2646H31.4326L30.585 56.5498H30.9181L31.1748 55.8311H32.0629L32.3316 56.5498H32.6768L31.8237 54.2646ZM31.2447 55.5973L31.4905 54.9364C31.5375 54.7966 31.5779 54.6557 31.6194 54.5213H31.6249C31.6598 54.6557 31.7013 54.7901 31.7538 54.9364L31.9995 55.5907H31.2458V55.5962L31.2447 55.5973Z" fill="#231F20"/>
<path d="M37.2984 55.223C37.2984 55.5791 37.3039 55.8544 37.3334 56.1635H37.3279C37.211 55.9352 37.0647 55.6905 36.8779 55.4273L36.0772 54.2705H35.7266V56.5557H36.0302V55.5791C36.0302 55.199 36.0248 54.9248 36.0073 54.6386H36.0193C36.1482 54.8844 36.3121 55.1411 36.4868 55.3989L37.282 56.5557H37.6097V54.2705H37.3061V55.2285L37.3006 55.223H37.2984Z" fill="#231F20"/>
<path d="M41.892 54.2646H41.501L40.6533 56.5498H40.9865L41.2432 55.8311H42.1312L42.4 56.5498H42.7451L41.892 54.2646ZM41.3131 55.5973L41.5589 54.9364C41.6058 54.7966 41.6463 54.6557 41.6878 54.5213H41.6932C41.7282 54.6557 41.7697 54.7901 41.8221 54.9364L42.0679 55.5907H41.3142V55.5962L41.3131 55.5973Z" fill="#231F20"/>
<path d="M46.8202 55.5905H47.3281V56.2743C47.2516 56.3093 47.1063 56.3333 46.8955 56.3333C46.3111 56.3333 45.931 55.9881 45.931 55.4103C45.931 54.8324 46.3286 54.4927 46.9359 54.4927C47.1872 54.4927 47.3565 54.5397 47.4909 54.5921L47.5673 54.3529C47.4624 54.3059 47.2342 54.248 46.9425 54.248C46.1069 54.248 45.5924 54.7451 45.5869 55.4289C45.5869 55.785 45.7213 56.0897 45.9376 56.282C46.1833 56.4983 46.4925 56.5856 46.8726 56.5856C47.2112 56.5856 47.4974 56.5092 47.6383 56.4633V55.3644H46.8147V55.6036L46.8202 55.5916V55.5905Z" fill="#231F20"/>
<path d="M51.1376 55.4804H52.1141V55.2346H51.1376V54.5159H52.1665V54.2646H50.8164V56.5498H52.2255V56.304H51.1376V55.4804Z" fill="#231F20"/>
<path d="M57.2401 54.2649L56.7955 55.3692C56.6841 55.6554 56.5967 55.9067 56.5323 56.1404H56.5203C56.4558 55.9012 56.3739 55.6554 56.269 55.3692L55.8419 54.2649H55.4268L55.251 56.55H55.5612L55.6311 55.568C55.654 55.2229 55.6715 54.8438 55.6781 54.5565H55.6835C55.7535 54.8252 55.8529 55.1235 55.9763 55.4446L56.3794 56.5315H56.6251L57.0632 55.4206C57.1921 55.1049 57.2915 54.8187 57.3788 54.5554H57.3909C57.3909 54.8416 57.4083 55.2218 57.4258 55.5429L57.4903 56.5479H57.8059L57.6486 54.2627H57.239L57.2401 54.2649Z" fill="#231F20"/>
<path d="M61.3075 55.4804H62.284V55.2346H61.3075V54.5159H62.3364V54.2646H60.9863V56.5498H62.3943V56.304H61.3075V55.4804Z" fill="#231F20"/>
<path d="M67.0641 55.223C67.0641 55.5791 67.0695 55.8544 67.099 56.1635H67.0935C66.9767 55.9352 66.8303 55.6905 66.6435 55.4273L65.8428 54.2705H65.4922V56.5557H65.7959V55.5791C65.7959 55.199 65.7904 54.9248 65.7729 54.6386H65.7849C65.9138 54.8844 66.0777 55.1411 66.2525 55.3989L67.0477 56.5557H67.3754V54.2705H67.0717V55.2285L67.0662 55.223H67.0641Z" fill="#231F20"/>
<path d="M70.3262 54.2646V54.5159H71.0853V56.5498H71.413V54.5159H72.1788V54.2646H70.3262Z" fill="#231F20"/>
<path d="M33.3076 0H65.7204V1.2682H50.4256L50.3491 45.3635H49.7177L49.7996 1.30315H33.3076V0Z" fill="#231F20"/>
<path d="M48.7539 1.30315L49.536 1.2682V45.3635H48.7124L26.5217 1.82966V45.3635H25.7734L25.8084 0H26.9302L48.8173 43.1777L48.7539 1.30315Z" fill="#231F20"/>
</g>
<defs>
<clipPath id="clip0_14_428">
<rect width="72.178" height="56.597" fill="white"/>
</clipPath>
</defs>
</svg>
