<svg width="79" height="37" viewBox="0 0 79 37" fill="none" xmlns="http://www.w3.org/2000/svg">
<g clip-path="url(#clip0_14_376)">
<path d="M34.0232 9.16117C33.8017 9.18144 33.6749 9.20341 33.5482 9.20341C31.2223 9.20679 28.8964 9.21524 26.5722 9.19834C26.3457 9.19665 26.0837 9.0733 25.9011 8.9263C24.4001 7.71477 22.7267 6.85808 20.8352 6.46438C17.0573 5.67866 13.6327 6.46945 10.6222 8.88405C8.25748 10.7816 6.82915 13.2706 6.32543 16.2546C5.80988 19.313 6.40826 22.1686 8.09859 24.7792C10.0036 27.7244 12.7098 29.5003 16.1395 30.1238C18.6699 30.5834 21.1226 30.2286 23.44 29.0914C26.4539 27.6129 28.4975 25.2642 29.6368 22.1196C29.9258 21.3204 29.9207 21.317 29.0671 21.317C24.603 21.317 20.1405 21.317 15.6763 21.317C15.3169 21.317 15.1366 21.1328 15.1354 20.7645C15.1354 19.0562 15.1354 17.3495 15.1371 15.6412C15.1371 15.1698 15.1591 15.1495 15.6155 15.1495C22.2179 15.1495 28.8186 15.1512 35.4211 15.1529C35.5428 15.1529 35.6645 15.163 35.7845 15.1529C36.0972 15.1242 36.2087 15.2847 36.2459 15.5736C36.606 18.3059 36.4505 21.001 35.6273 23.6404C34.8971 25.9823 33.7443 28.0995 32.1621 29.9768C30.749 31.653 29.0958 33.0453 27.1841 34.12C25.1151 35.2825 22.9042 36.0361 20.5445 36.3183C16.7649 36.7712 13.1696 36.1645 9.78554 34.3971C7.03537 32.9608 4.80414 30.9467 3.07155 28.3699C1.43532 25.935 0.449854 23.2636 0.12193 20.3555C-0.234729 17.1873 0.165879 14.1205 1.41165 11.1686C2.88731 7.68604 5.22503 4.93518 8.38764 2.88048C10.5141 1.49999 12.8315 0.63316 15.3433 0.237766C18.7865 -0.304633 22.1165 0.0907608 25.3112 1.44253C28.8271 2.92949 31.6127 5.31537 33.6496 8.55625C33.7595 8.73029 33.866 8.90602 34.0248 9.16117H34.0232Z" fill="black"/>
<path d="M42.3887 25.4051C42.3887 22.0223 42.3921 18.6411 42.3887 15.2583C42.3853 12.3537 43.1307 9.65352 44.6622 7.19329C46.3001 4.5624 48.5432 2.60233 51.3795 1.3249C52.6236 0.763916 53.9184 0.38373 55.2605 0.169136C55.8674 0.0711319 56.4877 0.0187506 57.1013 0.0136815C59.6469 -0.0032157 62.1926 0.00692261 64.7382 0.00692261C65.2132 0.00692261 65.2183 0.0119918 65.2183 0.486802C65.2183 2.23904 65.2199 3.98959 65.2199 5.74183C65.2199 6.14736 65.2014 6.16763 64.7872 6.16932C62.4292 6.17101 60.0712 6.17439 57.7115 6.1727C55.0712 6.17101 52.8265 7.11219 51.0127 9.02833C49.6537 10.4629 48.8542 12.1763 48.6226 14.1465C48.5973 14.3645 48.582 14.5841 48.5584 14.8038C48.5296 15.064 48.6463 15.1536 48.9015 15.1519C49.7602 15.1434 50.6206 15.1519 51.481 15.1519C55.8893 15.1519 60.2977 15.1552 64.7061 15.1569C65.0475 15.1569 65.2188 15.327 65.2199 15.6672C65.2199 17.3857 65.2199 19.1041 65.2199 20.8226C65.2199 21.3092 65.2199 21.3126 64.7162 21.3126C59.5151 21.3126 54.3123 21.3143 49.1111 21.316C48.5601 21.316 48.5567 21.316 48.5567 21.8786C48.5567 26.5727 48.555 31.265 48.555 35.959C48.555 36.4592 48.5567 36.4592 48.0665 36.4592C46.3576 36.4592 44.6503 36.4592 42.9414 36.4592C42.5741 36.4592 42.3898 36.279 42.3887 35.9185C42.3887 32.4157 42.3887 28.9112 42.3887 25.4085H42.3904L42.3887 25.4051Z" fill="black"/>
<path d="M77.3262 24.2948C77.3262 28.1947 77.3262 32.0962 77.3262 35.9961C77.3262 36.4473 77.3194 36.4557 76.8614 36.4557C75.1085 36.4557 73.3573 36.4557 71.6044 36.4557C71.1734 36.4557 71.1582 36.4422 71.1582 36.0079C71.1582 28.1964 71.1582 20.3848 71.1582 12.5732C71.1582 12.1288 71.1819 12.139 71.6332 12.1424C73.2745 12.1593 74.9175 12.1559 76.5588 12.1593C77.0659 12.1593 77.3195 12.4144 77.3195 12.9247C77.3195 16.7147 77.3195 20.5048 77.3195 24.2948H77.3228H77.3262Z" fill="black"/>
<path d="M78.8098 4.60844C78.8757 6.88111 77.0738 9.13519 74.3152 9.19264C71.9217 9.24165 69.8612 7.49448 69.6549 4.9599C69.4453 2.3797 71.4163 0.150964 73.923 0.00733771C76.3858 -0.132909 78.8402 1.74944 78.8098 4.60844ZM72.1617 7.40154C72.182 7.42013 72.2023 7.43872 72.2226 7.4573C72.8835 6.71552 73.5461 5.97204 74.2374 5.19477C74.9305 5.96866 75.5829 6.69693 76.2371 7.42689C76.2422 7.27144 76.1914 7.15484 76.1272 7.04501C75.8111 6.50261 75.4933 5.9619 75.1756 5.4195C74.7868 4.75544 74.7885 4.7622 75.5035 4.45974C76.2269 4.15391 76.9436 3.83455 77.6637 3.52026C77.5792 3.47295 77.515 3.47971 77.4541 3.49492C76.6157 3.68247 75.7773 3.86834 74.9423 4.06435C74.6752 4.12687 74.5468 4.06435 74.5366 3.77203C74.5265 3.45267 74.4893 3.13501 74.4589 2.81734C74.3963 2.15159 74.3321 1.48584 74.2679 0.818402C74.1292 1.79168 74.0329 2.76327 73.9535 3.73655C73.9298 4.0238 73.8267 4.12518 73.5326 4.05252C72.9122 3.90045 72.2868 3.76865 71.6631 3.63178C71.3858 3.57095 71.1069 3.51857 70.8297 3.46112C70.9311 3.58447 71.0478 3.64023 71.1678 3.69261C71.8963 4.0069 72.6215 4.32626 73.3534 4.6321C73.5985 4.73517 73.6695 4.83148 73.5106 5.0917C73.0457 5.85038 72.6096 6.62765 72.1634 7.39816L72.1617 7.40154Z" fill="black"/>
</g>
<defs>
<clipPath id="clip0_14_376">
<rect width="78.8115" height="36.4624" fill="white"/>
</clipPath>
</defs>
</svg>
